<svg width="24" height="24" viewBox="0 0 24 24" fill="none" xmlns="http://www.w3.org/2000/svg">
<path d="M9 3H15M13 9H14M14 9L14.569 10.564M14 9V3M10 3V6M9.732 9.736L6 20C5.95175 20.0971 5.9267 20.204 5.92683 20.3124C5.92696 20.4208 5.95225 20.5277 6.00073 20.6246C6.04921 20.7216 6.11953 20.806 6.20617 20.8711C6.29281 20.9362 6.3934 20.9804 6.5 21H17.5C17.6066 20.9804 17.7072 20.9362 17.7938 20.8711C17.8805 20.806 17.9508 20.7216 17.9993 20.6246C18.0477 20.5277 18.073 20.4208 18.0732 20.3124C18.0733 20.204 18.0482 20.0971 18 20L16.857 16.858M3 3L21 21" stroke="#BCA177" stroke-width="2" stroke-linecap="round" stroke-linejoin="round"/>
</svg>
