<svg width="26" height="30" viewBox="0 0 26 30" fill="none" xmlns="http://www.w3.org/2000/svg">
<path d="M20.6276 4.7C19.4941 3.39937 18.8694 1.72905 18.8699 0H13.7462V20.6667C13.7067 21.785 13.2369 22.8444 12.4358 23.6216C11.6348 24.3988 10.5649 24.8332 9.45153 24.8333C7.09694 24.8333 5.14031 22.9 5.14031 20.5C5.14031 17.6333 7.89286 15.4833 10.7283 16.3667V11.1C5.00765 10.3333 0 14.8 0 20.5C0 26.05 4.57653 30 9.43495 30C14.6416 30 18.8699 25.75 18.8699 20.5V10.0167C20.9476 11.5164 23.4421 12.3211 26 12.3167V7.16667C26 7.16667 22.8827 7.31667 20.6276 4.7Z" fill="white"/>
</svg>
