<svg width="16" height="16" viewBox="0 0 16 16" fill="none" xmlns="http://www.w3.org/2000/svg">
<path d="M10.875 7L12.883 12H12.172L10.164 7H10.875ZM5.74999 7.594C5.47399 7.594 5.22399 7.635 4.99999 7.719C4.78151 7.79881 4.58391 7.92701 4.42199 8.094C4.25999 8.26 4.13499 8.464 4.04699 8.704C3.95379 8.96955 3.90875 9.24961 3.914 9.531C3.914 9.818 3.954 10.078 4.031 10.312C4.109 10.547 4.22699 10.745 4.38299 10.906C4.53899 11.068 4.729 11.196 4.953 11.289C5.177 11.383 5.43299 11.427 5.71899 11.422C6.05916 11.4218 6.39605 11.3555 6.71099 11.227L6.83599 11.711C6.67905 11.7813 6.51368 11.831 6.34399 11.859C6.09647 11.9038 5.84554 11.9272 5.59399 11.929C5.28246 11.932 4.97291 11.8791 4.67999 11.773C4.40507 11.6727 4.15285 11.5187 3.93799 11.32C3.71944 11.1149 3.55314 10.8605 3.453 10.578C3.33775 10.2491 3.27695 9.90352 3.27299 9.555C3.27299 9.19 3.333 8.857 3.453 8.555C3.573 8.253 3.74 7.992 3.953 7.773C4.167 7.555 4.424 7.385 4.727 7.266C5.04587 7.14302 5.38525 7.08193 5.727 7.086C6.023 7.086 6.263 7.109 6.445 7.156C6.628 7.203 6.75999 7.25 6.84399 7.296L6.695 7.789C6.56556 7.72673 6.4293 7.67975 6.289 7.649C6.112 7.61026 5.93117 7.59181 5.74999 7.594ZM8 8H9V9H8V8ZM8 10H9V11H8V10Z" fill="white"/>
<path d="M15.5 1H0.5L0 1.5V14.5L0.5 15H15.5L16 14.5V1.5L15.5 1ZM15 14H1V5H15V14ZM15 4H1V2H15V4Z" fill="white"/>
</svg>
